<?xml version="1.0" encoding="UTF-8"?>
<!DOCTYPE svg PUBLIC "-//W3C//DTD SVG 1.1//EN" "http://www.w3.org/Graphics/SVG/1.1/DTD/svg11.dtd">
<!-- Creator: CorelDRAW X8 -->
<svg xmlns="http://www.w3.org/2000/svg" xml:space="preserve" width="93mm" height="87mm" version="1.1" style="shape-rendering:geometricPrecision; text-rendering:geometricPrecision; image-rendering:optimizeQuality; fill-rule:evenodd; clip-rule:evenodd"
viewBox="0 0 9300 8700"
 xmlns:xlink="http://www.w3.org/1999/xlink">
 <defs>
  <style type="text/css">
   <![CDATA[
    .fil0 {fill:#648DDB}
    .fil1 {fill:white}
   ]]>
  </style>
 </defs>
 <g id="Camada_x0020_1">
  <metadata id="CorelCorpID_0Corel-Layer"/>
  <g id="_551862256">
   <g>
    <path class="fil0" d="M1282 8144c0,-638 855,-749 1068,-222 32,79 53,196 34,288l-852 0c54,302 439,305 562,122l268 0c-177,556 -1080,473 -1080,-188zm847 -111c-90,-268 -501,-271 -586,0l586 0z"/>
    <path class="fil0" d="M4592 8144c0,-513 618,-733 957,-396 340,337 118,951 -398,951 -313,0 -559,-245 -559,-555zm246 0c0,348 478,423 603,123 108,-262 -150,-519 -414,-411 -116,48 -189,162 -189,288z"/>
    <path class="fil0" d="M9164 7611c0,208 -90,383 -267,490 94,67 165,165 226,271l177 305 -284 0c-52,-89 -155,-279 -216,-350 -49,-57 -99,-88 -157,-104 14,-88 15,-179 0,-269 168,-36 274,-141 274,-343l247 0z"/>
    <polygon class="fil0" points="6093,7189 6093,8432 6820,8432 6820,8677 5824,8677 5824,7189 "/>
    <path class="fil0" d="M3758 8388c208,0 208,311 0,311 -208,0 -208,-311 0,-311z"/>
    <path class="fil0" d="M4532 7999l-247 0c0,-234 -438,-223 -438,-49 0,221 754,236 754,727l-246 0c0,-326 -754,-288 -754,-727 0,-476 931,-506 931,49z"/>
    <path class="fil0" d="M2986 7833c-154,0 -257,95 -257,248l0 596 -246 0 0 -596c0,-653 1004,-658 1004,0l0 596 -246 0 0 -596c0,-153 -101,-248 -255,-248z"/>
    <path class="fil0" d="M1190 8248c0,321 -257,451 -570,451 -328,0 -620,-152 -620,-506l268 0c0,335 654,338 654,71 0,-252 -489,-166 -740,-369 -254,-205 -135,-728 411,-728 285,0 541,164 541,455l-268 0c0,-284 -542,-269 -542,-38 0,313 866,85 866,664z"/>
    <path class="fil0" d="M7448 8074l-223 -139c-15,48 -23,99 -23,152l0 590 246 0 0 -603z"/>
    <path class="fil0" d="M8206 8099l-23 -164 -223 139 0 603 246 0c0,-193 0,-385 0,-578z"/>
    <path class="fil0" d="M6855 8677l0 -574c-2,-119 21,-240 71,-354l212 132c-24,64 -37,134 -37,206l0 590 -246 0z"/>
    <path class="fil0" d="M8555 8677l0 -574c3,-119 -20,-240 -71,-354l-212 132c24,64 37,134 37,206l0 590 246 0z"/>
    <g>
     <path class="fil0" d="M7704 7588c-112,0 -216,37 -299,99 -22,69 -73,126 -139,156 -3,5 -5,9 -7,13l210 131c39,-91 129,-154 235,-154 106,0 196,63 235,154l210 -131c-84,-159 -252,-268 -445,-268zm-433 247c-2,3 -4,5 -5,8l5 -8z"/>
    </g>
    <path class="fil0" d="M7704 7244c-166,0 -321,47 -451,129 81,32 142,103 159,190l-3 2c87,-49 188,-76 295,-76 229,0 429,127 531,314l209 -130c-146,-256 -423,-429 -740,-429z"/>
    <path class="fil0" d="M7704 6900c-441,0 -827,237 -1034,590l209 130c10,-18 14,-24 25,-41 13,-105 90,-190 191,-215 165,-137 377,-220 609,-220 353,0 661,192 825,476l209 -130c-207,-353 -593,-590 -1034,-590z"/>
    <ellipse class="fil0" cx="7159" cy="7611" rx="157" ry="155"/>
    <path class="fil0" d="M7159 7456c-86,0 -157,69 -157,155 0,86 71,155 157,155 86,0 156,-69 156,-155 0,-86 -70,-155 -156,-155z"/>
   </g>
   <g id="_551862304">
    <rect class="fil0" x="1650" width="6000" height="6800" rx="400" ry="1133"/>
    <rect class="fil1" x="2150" y="500" width="5000" height="5800" rx="200" ry="580"/>
    <path class="fil0" d="M3149 4891l300 0 0 -400 -300 0c-198,0 -198,-300 0,-300l300 0 0 -100c0,-165 135,-300 300,-300 600,0 1200,0 1800,0 165,0 300,135 300,300l0 100 300 0c197,0 197,300 0,300l-300 0 0 400 300 0c197,0 197,300 0,300l-300 0 0 100c0,165 -135,300 -300,300l-50 0 0 300c0,198 -300,198 -300,0l0 -300 -400 0 0 300c0,198 -300,198 -300,0l0 -300 -400 0 0 300c0,198 -300,198 -300,0l0 -300 -50 0c-165,0 -300,-135 -300,-300l0 -100 -300 0c-198,0 -198,-300 0,-300z"/>
    <path class="fil0" d="M5641 1862c506,9 913,384 913,846 0,466 -417,845 -931,845l-1938 0c-514,0 -931,-379 -931,-845 0,-452 390,-821 881,-844 104,-465 514,-811 1003,-811 489,0 898,346 1003,809z"/>
    <g>
     <path class="fil1" d="M5455 4569c0,143 -61,264 -182,338 64,46 112,113 155,187l121 210 -195 0c-35,-61 -106,-193 -148,-241 -33,-40 -68,-61 -107,-72 10,-61 10,-124 0,-185 115,-25 188,-98 188,-237l168 0z"/>
     <path class="fil1" d="M4281 4888l-152 -95c-11,33 -17,68 -17,104l0 407 169 0 0 -416z"/>
     <path class="fil1" d="M4800 4906l-16 -113 -153 95 0 416 169 0c0,-133 0,-266 0,-398z"/>
     <path class="fil1" d="M3875 5304l0 -396c-2,-82 14,-165 49,-244l145 91c-17,44 -25,92 -25,142l0 407 -169 0z"/>
     <path class="fil1" d="M5039 5304l0 -396c1,-82 -14,-165 -49,-244l-145 91c16,44 25,92 25,142l0 407 169 0z"/>
     <g>
      <path class="fil1" d="M4456 4553c-77,0 -147,26 -205,68 -15,48 -50,87 -95,108 -1,3 -3,6 -5,9l144 90c27,-62 89,-106 161,-106 72,0 134,44 161,106l144 -90c-57,-110 -172,-185 -305,-185zm-296 170c-2,2 -3,4 -4,6l4 -6z"/>
     </g>
     <path class="fil1" d="M4456 4316c-113,0 -219,33 -309,89 56,22 98,71 109,131l-2 1c60,-33 129,-53 202,-53 157,0 294,88 363,217l143 -89c-99,-177 -289,-296 -506,-296z"/>
     <path class="fil1" d="M4456 4079c-302,0 -566,163 -707,407l142 89c7,-12 10,-16 17,-28 9,-72 62,-131 131,-149 113,-94 259,-151 417,-151 242,0 453,132 565,328l143 -89c-142,-244 -406,-407 -708,-407z"/>
     <circle class="fil1" cx="4083" cy="4569" r="107"/>
     <path class="fil1" d="M4083 4462c-59,0 -107,48 -107,107 0,59 48,107 107,107 59,0 107,-48 107,-107 0,-59 -48,-107 -107,-107z"/>
    </g>
   </g>
  </g>
 </g>
</svg>
