<?xml version="1.0" encoding="UTF-8"?>
<!DOCTYPE svg PUBLIC "-//W3C//DTD SVG 1.1//EN" "http://www.w3.org/Graphics/SVG/1.1/DTD/svg11.dtd">
<!-- Creator: CorelDRAW X8 -->
<svg xmlns="http://www.w3.org/2000/svg" xml:space="preserve" width="60mm" height="68mm" version="1.1" style="shape-rendering:geometricPrecision; text-rendering:geometricPrecision; image-rendering:optimizeQuality; fill-rule:evenodd; clip-rule:evenodd"
viewBox="0 0 6000 6800"
 xmlns:xlink="http://www.w3.org/1999/xlink">
 <defs>
  <style type="text/css">
   <![CDATA[
    .fil0 {fill:#648DDB}
    .fil1 {fill:white}
   ]]>
  </style>
 </defs>
 <g id="Camada_x0020_1">
  <metadata id="CorelCorpID_0Corel-Layer"/>
  <g id="_547389248">
   <rect class="fil0" width="6000" height="6800" rx="400" ry="1133"/>
   <rect class="fil1" x="500" y="500" width="5000" height="5800" rx="200" ry="580"/>
   <path class="fil0" d="M1499 4891l300 0 0 -400 -300 0c-198,0 -198,-300 0,-300l300 0 0 -100c0,-165 135,-300 300,-300 600,0 1200,0 1800,0 165,0 300,135 300,300l0 100 300 0c197,0 197,300 0,300l-300 0 0 400 300 0c197,0 197,300 0,300l-300 0 0 100c0,165 -135,300 -300,300l-50 0 0 300c0,198 -300,198 -300,0l0 -300 -400 0 0 300c0,198 -300,198 -300,0l0 -300 -400 0 0 300c0,198 -300,198 -300,0l0 -300 -50 0c-165,0 -300,-135 -300,-300l0 -100 -300 0c-198,0 -198,-300 0,-300z"/>
   <path class="fil0" d="M3991 1862c506,9 913,384 913,846 0,466 -417,845 -931,845l-1938 0c-514,0 -931,-379 -931,-845 0,-452 390,-821 881,-844 104,-465 514,-811 1003,-811 489,0 898,346 1003,809z"/>
   <g>
    <path class="fil1" d="M3805 4569c0,143 -61,264 -182,338 64,46 112,113 155,187l121 210 -195 0c-35,-61 -106,-193 -148,-241 -33,-40 -68,-61 -107,-72 10,-61 10,-124 0,-185 115,-25 188,-98 188,-237l168 0z"/>
    <path class="fil1" d="M2631 4888l-152 -95c-11,33 -17,68 -17,104l0 407 169 0 0 -416z"/>
    <path class="fil1" d="M3150 4906l-16 -113 -153 95 0 416 169 0c0,-133 0,-266 0,-398z"/>
    <path class="fil1" d="M2225 5304l0 -396c-2,-82 14,-165 49,-244l145 91c-17,44 -25,92 -25,142l0 407 -169 0z"/>
    <path class="fil1" d="M3389 5304l0 -396c1,-82 -14,-165 -49,-244l-145 91c16,44 25,92 25,142l0 407 169 0z"/>
    <g>
     <path class="fil1" d="M2806 4553c-77,0 -147,26 -205,68 -15,48 -50,87 -95,108 -1,3 -3,6 -5,9l144 90c27,-62 89,-106 161,-106 72,0 134,44 161,106l144 -90c-57,-110 -172,-185 -305,-185zm-296 170c-2,2 -3,4 -4,6l4 -6z"/>
    </g>
    <path class="fil1" d="M2806 4316c-113,0 -219,33 -309,89 56,22 98,71 109,131l-2 1c60,-33 129,-53 202,-53 157,0 294,88 363,217l143 -89c-99,-177 -289,-296 -506,-296z"/>
    <path class="fil1" d="M2806 4079c-302,0 -566,163 -707,407l142 89c7,-12 10,-16 17,-28 9,-72 62,-131 131,-149 113,-94 259,-151 417,-151 242,0 453,132 565,328l143 -89c-142,-244 -406,-407 -708,-407z"/>
    <circle class="fil1" cx="2433" cy="4569" r="107"/>
    <path class="fil1" d="M2433 4462c-59,0 -107,48 -107,107 0,59 48,107 107,107 59,0 107,-48 107,-107 0,-59 -48,-107 -107,-107z"/>
   </g>
  </g>
 </g>
</svg>
