<?xml version="1.0" encoding="UTF-8"?>
<!DOCTYPE svg PUBLIC "-//W3C//DTD SVG 1.1//EN" "http://www.w3.org/Graphics/SVG/1.1/DTD/svg11.dtd">
<!-- Creator: CorelDRAW X8 -->
<svg xmlns="http://www.w3.org/2000/svg" xml:space="preserve" width="93mm" height="18mm" version="1.1" style="shape-rendering:geometricPrecision; text-rendering:geometricPrecision; image-rendering:optimizeQuality; fill-rule:evenodd; clip-rule:evenodd"
viewBox="0 0 9300 1800"
 xmlns:xlink="http://www.w3.org/1999/xlink">
 <defs>
  <style type="text/css">
   <![CDATA[
    .fil0 {fill:#648DDB}
   ]]>
  </style>
 </defs>
 <g id="Camada_x0020_1">
  <metadata id="CorelCorpID_0Corel-Layer"/>
  <g id="_552029520">
   <path class="fil0" d="M1282 1244c0,-638 855,-749 1068,-222 32,79 53,196 34,288l-852 0c54,302 439,305 562,122l268 0c-177,556 -1080,473 -1080,-188zm847 -111c-90,-268 -501,-271 -586,0l586 0z"/>
   <path class="fil0" d="M4592 1244c0,-513 618,-733 957,-396 340,337 118,951 -398,951 -313,0 -559,-245 -559,-555zm246 0c0,348 478,423 603,123 108,-262 -150,-519 -414,-411 -116,48 -189,162 -189,288z"/>
   <path class="fil0" d="M9164 711c0,208 -90,383 -267,490 94,67 165,165 226,271l177 305 -284 0c-52,-89 -155,-279 -216,-350 -49,-57 -99,-88 -157,-104 14,-88 15,-179 0,-269 168,-36 274,-141 274,-343l247 0z"/>
   <polygon class="fil0" points="6093,289 6093,1532 6820,1532 6820,1777 5824,1777 5824,289 "/>
   <path class="fil0" d="M3758 1488c208,0 208,311 0,311 -208,0 -208,-311 0,-311z"/>
   <path class="fil0" d="M4532 1099l-247 0c0,-234 -438,-223 -438,-49 0,221 754,236 754,727l-246 0c0,-326 -754,-288 -754,-727 0,-476 931,-506 931,49z"/>
   <path class="fil0" d="M2986 933c-154,0 -257,95 -257,248l0 596 -246 0 0 -596c0,-653 1004,-658 1004,0l0 596 -246 0 0 -596c0,-153 -101,-248 -255,-248z"/>
   <path class="fil0" d="M1190 1348c0,321 -257,451 -570,451 -328,0 -620,-152 -620,-506l268 0c0,335 654,338 654,71 0,-252 -489,-166 -740,-369 -254,-205 -135,-728 411,-728 285,0 541,164 541,455l-268 0c0,-284 -542,-269 -542,-38 0,313 866,85 866,664z"/>
   <path class="fil0" d="M7448 1174l-223 -139c-15,48 -23,99 -23,152l0 590 246 0 0 -603z"/>
   <path class="fil0" d="M8206 1199l-23 -164 -223 139 0 603 246 0c0,-193 0,-385 0,-578z"/>
   <path class="fil0" d="M6855 1777l0 -574c-2,-119 21,-240 71,-354l212 132c-24,64 -37,134 -37,206l0 590 -246 0z"/>
   <path class="fil0" d="M8555 1777l0 -574c3,-119 -20,-240 -71,-354l-212 132c24,64 37,134 37,206l0 590 246 0z"/>
   <g>
    <path class="fil0" d="M7704 688c-112,0 -216,37 -299,99 -22,69 -73,126 -139,156 -3,5 -5,9 -7,13l210 131c39,-91 129,-154 235,-154 106,0 196,63 235,154l210 -131c-84,-159 -252,-268 -445,-268zm-433 247c-2,3 -4,5 -5,8l5 -8z"/>
   </g>
   <path class="fil0" d="M7704 344c-166,0 -321,47 -451,129 81,32 142,103 159,190l-3 2c87,-49 188,-76 295,-76 229,0 429,127 531,314l209 -130c-146,-256 -423,-429 -740,-429z"/>
   <path class="fil0" d="M7704 0c-441,0 -827,237 -1034,590l209 130c10,-18 14,-24 25,-41 13,-105 90,-190 191,-215 165,-137 377,-220 609,-220 353,0 661,192 825,476l209 -130c-207,-353 -593,-590 -1034,-590z"/>
   <ellipse class="fil0" cx="7159" cy="711" rx="157" ry="155"/>
   <path class="fil0" d="M7159 556c-86,0 -157,69 -157,155 0,86 71,155 157,155 86,0 156,-69 156,-155 0,-86 -70,-155 -156,-155z"/>
  </g>
 </g>
</svg>
